{"title":"Masterpiece_Mystery_Framed_720p_20101226","uid":6088892,"size":2747543669,"categoryP":"video","categoryS":"hd___tv_shows","magnet":"?xt=urn:btih:c9417e2c6b5eb572c2ffc5b13116b42900b52b78&amp;dn=Masterpiece_Mystery_Framed_720p_20101226&amp;tr=udp%3A%2F%2Ftracker.openbittorrent.com%3A80&amp;tr=udp%3A%2F%2Fopen.demonii.com%3A1337&amp;tr=udp%3A%2F%2Ftracker.coppersurfer.tk%3A6969&amp;tr=udp%3A%2F%2Fexodus.desync.com%3A6969","seeders":0,"leechers":2,"uploader":"thetorrentlord","files":2,"time":1294460622,"description":"Masterpiece_Mystery_Framed_720p_20101226.avi\nFormat                           : AVI\nFormat/Info                      : Audio Video Interleave\nFormat profile                   : OpenDML\nFile size                        : 2.56 GiB\nDuration                         : 1h 21mn 36sec\nOverall bit rate                 : 2 244 Kbps\nMovie name                       : Masterpiece_Mystery_Framed_720p_20101226.mpg\nDirector                         : created.with.SUPER(C).v2010.bld.37\nWriting application              : SUPER(C)   \n\nVideo\nID                               : 0\nFormat                           : MPEG-4 Visual\nFormat profile                   : Simple@L3\nFormat settings, BVOP            : No\nFormat settings, QPel            : No\nFormat settings, GMC             : No warppoints\nFormat settings, Matrix          : Default (H.263)\nCodec ID                         : XVID\nCodec ID/Hint                    : XviD\nDuration                         : 1h 21mn 36sec\nBit rate                         : 4 364 Kbps\nWidth                            : 1 280 pixels\nHeight                           : 720 pixels\nDisplay aspect ratio             : 16:9\nFrame rate                       : 29.970 fps\nColor space                      : YUV\nChroma subsampling               : 4:2:0\nBit depth                        : 8 bits\nScan type                        : Progressive\nBits/(Pixel*Frame)               : 0.158\nStream size                      : 2.49 GiB (97%)\nWriting library                  : XviD 1.1.2 (UTC 2006-11-01)\n\nAudio\nID                               : 1\nFormat                           : MPEG Audio\nFormat version                   : Version 2\nFormat profile                   : Layer 3\nMode                             : Joint stereo\nCodec ID                         : 55\nCodec ID/Hint                    : MP3\nDuration                         : 2h 43mn\nBit rate mode                    : Constant\nBit rate                         : 112 Kbps\nChannel(s)                       : 2 channels\nSampling rate                    : 22.05 KHz\nStream size                      : 65.4 MiB (2%)\nAlignment                        : Aligned on interleaves\nInterleave, duration             : 26 ms (0.78 video frame)\nInterleave, preload duration     : 26 ms\nWriting library                  : LAME3.98Ã‚Âª\u000eÃ‚Â¢\u0007\f\n\n","torrent":{"xt":"urn:btih:c9417e2c6b5eb572c2ffc5b13116b42900b52b78","amp;dn":"Masterpiece_Mystery_Framed_720p_20101226","amp;tr":["udp%3A%2F%2Ftracker.openbittorrent.com%3A80","udp%3A%2F%2Fopen.demonii.com%3A1337","udp%3A%2F%2Ftracker.coppersurfer.tk%3A6969","udp%3A%2F%2Fexodus.desync.com%3A6969"],"infoHash":"c9417e2c6b5eb572c2ffc5b13116b42900b52b78","infoHashBuffer":{"type":"Buffer","data":[201,65,126,44,107,94,181,114,194,255,197,177,49,22,180,41,0,181,43,120]},"announce":[],"urlList":[]}}